<?xml version="1.0" encoding="UTF-8"?>
<svg width="24px" height="21px" viewBox="0 0 24 21" version="1.1" xmlns="http://www.w3.org/2000/svg" xmlns:xlink="http://www.w3.org/1999/xlink">
    <!-- Generator: Sketch 49.1 (51147) - http://www.bohemiancoding.com/sketch -->
    <title>reports</title>
    <desc>Created with Sketch.</desc>
    <defs></defs>
    <g id="_Bupa-Sales-II" stroke="none" stroke-width="1" fill="none" fill-rule="evenodd">
        <g id="inicio-2" transform="translate(-74.000000, -156.000000)" fill="#9B9B9B" fill-rule="nonzero">
            <g id="reports" transform="translate(74.000000, 156.000000)">
                <path d="M0,19.6735816 L0,11.3154211 L2.31992002,3.27593101 C2.4323919,2.88452887 2.7908023,2.61534617 3.19870032,2.61534617 L6.25193701,2.61534617 L6.25193701,0.914021496 C6.25193701,0.41014746 6.66208448,0 7.16595851,0 L16.7778055,0 C17.2816796,0 17.691827,0.41014746 17.691827,0.914021496 L17.691827,2.61534617 L20.8012997,2.61534617 C21.2091977,2.61534617 21.5653586,2.88452887 21.68008,3.27593101 L24,11.3154211 L24,19.6735816 C24,20.1774557 23.5898525,20.5876031 23.0859785,20.5876031 L0.914771304,20.5876031 C0.41089728,20.5853537 0.000749808,20.1774557 0.000749808,19.6735816 L0,19.6735816 Z M1.20944764,19.3204199 L22.7268182,19.3204199 L22.7268182,12.6890777 L16.6810798,12.6890777 L16.6293427,12.7948013 C15.731817,14.5876031 13.9697575,15.7003249 12.027743,15.7003249 C10.0504873,15.7003249 8.26443389,14.5876031 7.36915771,12.7948013 L7.31742065,12.6890777 L1.20869783,12.6890777 L1.20869783,19.3204199 L1.20944764,19.3204199 Z M8.14221445,11.4796301 C8.90627344,13.5326168 10.1247188,14.4908773 11.9685079,14.4908773 C13.8122969,14.4908773 15.0307423,13.5326168 15.7948013,11.4796301 L19.2604349,11.4796301 L19.2604349,9.3381654 L4.67658085,9.3381654 L4.67658085,11.4796301 L8.14221445,11.4796301 Z M1.26043489,11.4796301 L3.86378405,11.4796301 L3.86378405,8.97000744 C3.86378405,8.724069 4.06323419,8.5246188 4.30917271,8.5246188 L4.66083479,8.5246188 L4.66083479,6.01499626 C4.66083479,5.76905773 4.86028493,5.5696076 5.10622344,5.5696076 L5.45788553,5.5696076 L5.45788553,3.82629343 L3.47538115,3.82629343 L1.2611847,11.4788803 L1.26043489,11.4796301 Z M20.1302174,11.4796301 L22.7335666,11.4796301 L20.5216196,3.82704324 L18.5391152,3.82704324 L18.5391152,5.57035741 L18.8907773,5.57035741 C19.1367158,5.57035741 19.3361659,5.76980755 19.3361659,6.01574606 L19.3361659,8.46913272 L19.6878281,8.46913272 C19.9337665,8.46913272 20.1332167,8.6685828 20.1332167,8.91452136 L20.1332167,11.48038 L20.1302174,11.4796301 Z M5.47138216,8.46913272 L18.5226193,8.46913272 L18.5226193,6.38390402 L5.47138216,6.38390402 L5.47138216,8.46913272 Z M6.26543364,5.57035741 L17.6693327,5.57035741 L17.6693327,3.59985004 L6.26543364,3.59985004 L6.26543364,5.57035741 Z M7.06248438,2.78630342 L16.876031,2.78630342 L16.876031,0.815796048 L7.06248438,0.815796048 L7.06248438,2.78630342 Z" id="path-1"></path>
            </g>
        </g>
    </g>
</svg>