<?xml version="1.0" encoding="UTF-8"?>
<svg width="20px" height="21px" viewBox="0 0 20 21" version="1.1" xmlns="http://www.w3.org/2000/svg" xmlns:xlink="http://www.w3.org/1999/xlink">
    <!-- Generator: Sketch 49.1 (51147) - http://www.bohemiancoding.com/sketch -->
    <title>Group</title>
    <desc>Created with Sketch.</desc>
    <defs></defs>
    <g id="_Bupa-Sales-II" stroke="none" stroke-width="1" fill="none" fill-rule="evenodd">
        <g id="inicio-1" transform="translate(-224.000000, -156.000000)" fill="#9B9B9B">
            <g id="Group" transform="translate(224.000000, 156.000000)">
                <path d="M16.9604444,8.82007407 L15.0271111,8.82007407 L15.0271111,10.0074815 L16.9604444,10.0074815 C17.6382222,10.0074815 18.1804444,10.5497037 18.1804444,11.2282222 L18.1804444,14.5867407 C18.1804444,15.2652593 17.6382222,15.8074815 16.9604444,15.8074815 L16.4182222,15.8074815 L16.4182222,20.9637778 L17.6041481,20.9637778 L17.6041481,16.8934074 C18.6234074,16.6215556 19.3693333,15.6726667 19.3693333,14.5867407 L19.3693333,11.2282222 C19.3693333,9.90525926 18.2826667,8.82007407 16.9604444,8.82007407" id="Fill-218"></path>
                <path d="M2.40888889,10.0074815 L4.30740741,10.0074815 L4.30740741,8.82007407 L2.40888889,8.82007407 C1.08666667,8.82007407 0,9.90525926 0,11.2282222 L0,14.5867407 C0,15.6726667 0.745925926,16.6222963 1.76444444,16.8926667 L1.76444444,20.9645185 L2.95111111,20.9645185 L2.95111111,15.8074815 L2.40888889,15.8074815 C1.73111111,15.8074815 1.18888889,15.2652593 1.18888889,14.5867407 L1.18888889,11.2282222 C1.18888889,10.5497037 1.73111111,10.0074815 2.40888889,10.0074815" id="Fill-220"></path>
                <path d="M13.805037,8.82007407 C13.805037,8.54822222 13.7383704,8.31118519 13.6361481,8.07340741 C13.4331852,7.56525926 13.0939259,7.15785185 12.6183704,6.88674074 C12.245037,6.6822963 11.8376296,6.54748148 11.3968889,6.54748148 L7.90281481,6.54748148 C7.46207407,6.54748148 7.02207407,6.6822963 6.68281481,6.88674074 C6.24133333,7.15785185 5.868,7.56525926 5.66503704,8.07340741 C5.56355556,8.31118519 5.528,8.54822222 5.49466667,8.82007407 L5.49466667,8.95637037 L5.49466667,13.5348889 C5.49466667,13.8408148 5.56355556,14.146 5.66503704,14.4178519 C5.868,14.8911852 6.17318519,15.2993333 6.61466667,15.5704444 C6.64948148,15.5704444 6.64948148,15.6045185 6.68281481,15.6045185 C6.85244444,15.706 7.05466667,15.8074815 7.25911111,15.8422963 L7.25911111,20.9304444 L8.44577778,20.9304444 L8.44577778,14.7563704 L8.31096296,14.7563704 L7.90281481,14.7563704 C7.59762963,14.7563704 7.36133333,14.6541481 7.12355556,14.4845185 C6.85244444,14.2482222 6.68281481,13.943037 6.68281481,13.5348889 L6.68281481,8.9897037 C6.68281481,8.31118519 7.22503704,7.8022963 7.90281481,7.8022963 L11.4317037,7.8022963 C12.1102222,7.8022963 12.6531852,8.34525926 12.6531852,9.02377778 L12.6531852,13.6037778 C12.6531852,13.9763704 12.4835556,14.2808148 12.245037,14.5193333 C12.0413333,14.6882222 11.770963,14.8237778 11.4657778,14.8237778 L11.0917037,14.8237778 L10.9228148,14.8237778 L10.9228148,20.9978519 L12.1102222,20.9978519 L12.1102222,15.8756296 C12.3139259,15.8074815 12.5176296,15.7400741 12.6865185,15.6378519 C12.7205926,15.6378519 12.7554074,15.6045185 12.7554074,15.6045185 C13.1613333,15.3334074 13.5005926,14.926 13.6702222,14.4845185 C13.7724444,14.2134074 13.8405926,13.908963 13.8405926,13.6037778 L13.8405926,8.9897037 C13.8405926,8.9222963 13.805037,8.88822222 13.805037,8.82007407" id="Fill-222"></path>
                <path d="M9.66659259,1.15407407 C10.5488148,1.15407407 11.2614074,1.86592593 11.2614074,2.74814815 C11.2614074,3.62962963 10.5488148,4.34296296 9.66659259,4.34296296 C8.78585185,4.34296296 8.074,3.62962963 8.074,2.74814815 C8.074,1.86592593 8.78585185,1.15407407 9.66659259,1.15407407 M9.66659259,5.5637037 C11.2280741,5.5637037 12.4495556,4.30888889 12.4495556,2.78222222 C12.4495556,1.25555556 11.1932593,0 9.66659259,0 C8.14066667,0 6.88585185,1.25555556 6.88585185,2.78222222 C6.88585185,4.30888889 8.10659259,5.5637037 9.66659259,5.5637037" id="Fill-224"></path>
                <path d="M16.1118519,3.42651852 C16.9940741,3.42651852 17.7059259,4.13911111 17.7059259,5.02059259 C17.7059259,5.90281481 16.9940741,6.61540741 16.1118519,6.61540741 C15.2311111,6.61540741 14.5177778,5.90281481 14.5177778,5.02059259 C14.4844444,4.13911111 15.2311111,3.42651852 16.1118519,3.42651852 M16.1118519,7.80281481 C17.6733333,7.80281481 18.8948148,6.54725926 18.8948148,5.02059259 C18.8948148,3.49466667 17.6385185,2.23911111 16.1118519,2.23911111 C14.5859259,2.23911111 13.3311111,3.49466667 13.3311111,5.02059259 C13.3311111,6.54725926 14.5518519,7.80281481 16.1118519,7.80281481" id="Fill-226"></path>
                <path d="M3.25674074,3.42651852 C4.13822222,3.42651852 4.85081481,4.13911111 4.85081481,5.02059259 C4.85081481,5.90281481 4.13822222,6.61540741 3.25674074,6.61540741 C2.37525926,6.61540741 1.66266667,5.90281481 1.66266667,5.02059259 C1.62859259,4.13911111 2.37525926,3.42651852 3.25674074,3.42651852 M3.25674074,7.80281481 C4.78340741,7.80281481 6.03822222,6.54725926 6.03822222,5.02059259 C6.03822222,3.49466667 4.78340741,2.23911111 3.25674074,2.23911111 C1.696,2.23911111 0.441185185,3.49466667 0.441185185,5.02059259 C0.441185185,6.54725926 1.696,7.80281481 3.25674074,7.80281481" id="Fill-228"></path>
            </g>
        </g>
    </g>
</svg>